<svg width="146" height="146" viewBox="0 0 146 146" fill="none" xmlns="http://www.w3.org/2000/svg">
<circle cx="73" cy="73" r="73" fill="#FFEA94"/>
<path d="M51.134 61.5127H8.89331C27.9875 67.2592 29.2123 80.8957 27.438 86.9957C69.507 83.5752 73.2846 105.98 73.2846 105.98C77.7491 87.3378 105.852 85.3424 118.96 86.6537C114.838 72.6979 129.834 64.0781 137.848 61.5127H94.7484C93.6494 70.9534 83.4155 72.0594 78.4359 71.4323L77.2339 62.8809C76.6845 63.2914 76.0892 66.2444 75.8603 67.6697H70.5372C70.5372 66.7119 69.6215 64.1921 69.1636 63.0519L67.9616 71.4323C52.8511 71.4323 50.4472 64.8192 51.134 61.5127Z" fill="black" stroke="black"/>
</svg>
